<svg id="Layer_1" enable-background="new 0 0 512 512" height="512" viewBox="0 0 512 512" width="512" xmlns="http://www.w3.org/2000/svg"><g><path d="m512 256c0-141.385-114.615-256-256-256s-256 114.615-256 256c.135 110.735 70.947 205.531 169.655 241.001 11.434 4.109 21.015-5.007 21.015-14.696v-163.131h130.66v163.131c0 9.689 9.581 18.804 21.015 14.696 98.708-35.47 169.52-130.266 169.655-241.001z" fill="#ff4d4f"/><path d="m321.33 319.174v163.131c0 9.689 9.581 18.804 21.015 14.696 98.708-35.47 169.52-130.266 169.655-241.001 0-141.385-114.615-256-256-256v319.174z" fill="#d2303a"/><path d="m175.67 289.2c-8.284 0-15 6.716-15 15v179.06c0 6.18 3.73 11.49 9.07 13.78 8.286 3.124 41.925 14.96 86.26 14.96 44.333 0 77.97-11.835 86.26-14.96 5.34-2.29 9.07-7.6 9.07-13.78v-179.06c0-8.284-6.716-15-15-15z" fill="#00deb6"/><path d="m336.33 289.2h-80.33v222.8c44.333 0 77.97-11.835 86.26-14.96 5.34-2.29 9.07-7.6 9.07-13.78v-179.06c0-8.284-6.716-15-15-15z" fill="#00a6bd"/><path d="m256 415.6c-24.726 0-47.972-9.629-65.458-27.113l-25.481-25.481c-13.193-13.189-20.461-30.731-20.461-49.393v-20.938l-29.613-44.421c-3.967-5.949-3.182-13.871 1.874-18.927l5.46-5.46-21.526-21.527c-3.676-3.676-5.187-8.993-3.992-14.053s4.923-9.14 9.855-10.784l37.942-12.648v-21.322c0-3.978 1.58-7.793 4.394-10.606l48.2-48.2c4.29-4.291 10.744-5.572 16.347-3.252 5.605 2.322 9.26 7.792 9.26 13.858v33.2h66.4v-33.2c0-6.067 3.654-11.537 9.26-13.858 5.604-2.32 12.057-1.039 16.347 3.252l48.2 48.2c2.813 2.813 4.394 6.628 4.394 10.606v21.322l37.942 12.648c4.933 1.644 8.661 5.724 9.855 10.784s-.316 10.377-3.992 14.053l-21.526 21.527 5.46 5.46c5.056 5.056 5.841 12.978 1.874 18.927l-29.615 44.421v20.938c0 18.662-7.268 36.204-20.463 49.395l-25.479 25.479c-17.486 17.484-40.732 27.113-65.458 27.113z" fill="#82fc9e"/><path d="m395.14 229.327-5.46-5.46 21.526-21.527c3.676-3.676 5.187-8.993 3.992-14.053s-4.923-9.14-9.855-10.784l-37.943-12.648v-21.322c0-3.978-1.58-7.793-4.394-10.606l-48.2-48.2c-4.29-4.291-10.742-5.572-16.347-3.252-5.605 2.322-9.26 7.792-9.26 13.858v33.2h-33.199v287.067c24.726 0 47.972-9.629 65.458-27.113l25.479-25.479c13.195-13.19 20.463-30.732 20.463-49.395v-20.938l29.613-44.421c3.967-5.95 3.182-13.872-1.873-18.927z" fill="#00deb6"/><path d="m141.976 365.827c-7.945 0-15.965-1.543-23.631-4.718-23.092-9.567-38.012-31.897-38.012-56.89 0-8.284 6.716-15.009 15-15.009s15 6.706 15 14.99c0 12.835 7.651 24.287 19.493 29.192 11.846 4.906 25.354 2.219 34.414-6.844l32.952-32.954c5.857-5.859 15.355-5.859 21.213-.002s5.859 15.355.002 21.213l-32.953 32.956c-11.807 11.808-27.485 18.066-43.478 18.066z" fill="#00deb6"/><path d="m370.024 365.827c-15.995 0-31.672-6.258-43.479-18.067l-32.952-32.955c-5.857-5.858-5.856-15.356.002-21.213s15.356-5.856 21.213.002l32.951 32.953c9.063 9.064 22.57 11.751 34.417 6.845 11.84-4.905 19.491-16.356 19.491-29.173 0-8.284 6.716-15.009 15-15.009s15 6.706 15 14.99c0 25.011-14.92 47.342-38.011 56.908-7.665 3.175-15.688 4.719-23.632 4.719z" fill="#00a6bd"/><path d="m213.26 330.873-16.066-16.066c-5.858-5.858-5.858-15.355 0-21.213 5.857-5.858 15.355-5.858 21.213 0l16.066 16.066c5.858 5.858 5.858 15.355 0 21.213-5.859 5.859-15.357 5.857-21.213 0z" fill="#00a6bd"/><path d="m277.527 330.873c-5.858-5.858-5.858-15.355 0-21.213l16.066-16.066c5.857-5.858 15.355-5.858 21.213 0s5.858 15.355 0 21.213l-16.066 16.066c-5.858 5.859-15.357 5.857-21.213 0z" fill="#008686"/><circle clip-rule="evenodd" cx="207.8" cy="223.867" fill="#4e1d06" fill-rule="evenodd" r="15"/><circle clip-rule="evenodd" cx="304.2" cy="223.867" fill="#2a0f00" fill-rule="evenodd" r="15"/><path d="m213.26 234.473-16.066-16.067c-5.858-5.858-5.858-15.355 0-21.213 5.858-5.857 15.356-5.857 21.213 0l16.066 16.067c5.858 5.858 5.858 15.355 0 21.213-5.86 5.859-15.357 5.857-21.213 0z" fill="#732b0c"/><path d="m277.527 234.474c-5.858-5.858-5.858-15.355 0-21.213l16.066-16.067c5.857-5.858 15.355-5.858 21.213 0s5.858 15.355 0 21.213l-16.066 16.067c-5.858 5.858-15.356 5.856-21.213 0z" fill="#4e1d06"/></g></svg>